<svg xmlns="http://www.w3.org/2000/svg" viewBox="0 0 100 100" fill="none" stroke-width="1.5" stroke-linejoin="round" stroke-linecap="round">
  <line x1="68" y1="40" x2="68" y2="81" />
  <line x1="68" y1="40" x2="69" y2="13" />
  <line x1="68" y1="40" x2="31" y2="20" />
  <line x1="68" y1="40" x2="92" y2="50" />
  <line x1="68" y1="40" x2="30" y2="63" />
  <line x1="68" y1="81" x2="69" y2="80" />
  <line x1="68" y1="81" x2="31" y2="87" />
  <line x1="68" y1="81" x2="92" y2="50" />
  <line x1="68" y1="81" x2="30" y2="63" />
  <line x1="32" y1="19" x2="32" y2="60" />
  <line x1="32" y1="19" x2="69" y2="13" />
  <line x1="32" y1="19" x2="31" y2="20" />
  <line x1="32" y1="19" x2="70" y2="37" />
  <line x1="32" y1="19" x2="8" y2="50" />
  <line x1="32" y1="60" x2="69" y2="80" />
  <line x1="32" y1="60" x2="31" y2="87" />
  <line x1="32" y1="60" x2="70" y2="37" />
  <line x1="32" y1="60" x2="8" y2="50" />
  <line x1="69" y1="13" x2="31" y2="20" />
  <line x1="69" y1="13" x2="92" y2="50" />
  <line x1="69" y1="13" x2="70" y2="37" />
  <line x1="31" y1="20" x2="30" y2="63" />
  <line x1="31" y1="20" x2="8" y2="50" />
  <line x1="69" y1="80" x2="31" y2="87" />
  <line x1="69" y1="80" x2="92" y2="50" />
  <line x1="69" y1="80" x2="70" y2="37" />
  <line x1="31" y1="87" x2="30" y2="63" />
  <line x1="31" y1="87" x2="8" y2="50" />
  <line x1="92" y1="50" x2="70" y2="37" />
  <line x1="30" y1="63" x2="8" y2="50" />
  <style>
    line { stroke: #a78bfa; }
    @media (prefers-color-scheme: light) {
      line { stroke: #6d28d9; }
    }
  </style>
</svg>
