<svg width="32" height="32" viewBox="0 0 32 32" fill="none" xmlns="http://www.w3.org/2000/svg">
<circle cx="16" cy="16" r="16" fill="url(#paint0_linear_4_2)"/>
<path d="M7.39567 21L10.4797 12.06H12.5917L15.6757 21H13.8997L13.2637 19.08H9.80767L9.15967 21H7.39567ZM10.2757 17.64H12.7957L11.3077 13.188H11.7637L10.2757 17.64ZM20.5074 21.144C19.8674 21.144 19.2754 21.028 18.7314 20.796C18.1954 20.564 17.7234 20.24 17.3154 19.824C16.9154 19.408 16.6034 18.92 16.3794 18.36C16.1554 17.8 16.0434 17.188 16.0434 16.524C16.0434 15.86 16.1514 15.248 16.3674 14.688C16.5914 14.12 16.9034 13.632 17.3034 13.224C17.7114 12.808 18.1874 12.488 18.7314 12.264C19.2754 12.032 19.8674 11.916 20.5074 11.916C21.1474 11.916 21.7194 12.024 22.2234 12.24C22.7354 12.456 23.1674 12.744 23.5194 13.104C23.8714 13.456 24.1234 13.844 24.2754 14.268L22.8114 14.952C22.6434 14.504 22.3594 14.136 21.9594 13.848C21.5594 13.552 21.0754 13.404 20.5074 13.404C19.9474 13.404 19.4514 13.536 19.0194 13.8C18.5954 14.064 18.2634 14.428 18.0234 14.892C17.7914 15.356 17.6754 15.9 17.6754 16.524C17.6754 17.148 17.7914 17.696 18.0234 18.168C18.2634 18.632 18.5954 18.996 19.0194 19.26C19.4514 19.524 19.9474 19.656 20.5074 19.656C21.0754 19.656 21.5594 19.512 21.9594 19.224C22.3594 18.928 22.6434 18.556 22.8114 18.108L24.2754 18.792C24.1234 19.216 23.8714 19.608 23.5194 19.968C23.1674 20.32 22.7354 20.604 22.2234 20.82C21.7194 21.036 21.1474 21.144 20.5074 21.144Z" fill="white"/>
<defs>
<linearGradient id="paint0_linear_4_2" x1="0" y1="512" x2="1024" y2="512" gradientUnits="userSpaceOnUse">
<stop stop-color="#A78BFA"/>
<stop offset="1" stop-color="#7C3AED"/>
</linearGradient>
</defs>
</svg>
